<svg width="141" height="47" viewBox="0 0 141 47" fill="none" xmlns="http://www.w3.org/2000/svg">
<path fill-rule="evenodd" clip-rule="evenodd" d="M18.2925 17.5276H21.3494V37.0219C31.7226 36.1618 51.5165 35.9898 89.2746 37.6992C126.73 38.266 135.672 37.6028 135.919 38.7738C136.001 39.1628 135.123 39.7543 134.013 40.6606C134.013 41.178 104.917 41.6635 70.9743 41.6635C37.0315 41.6635 9.94202 41.178 9.94202 40.6607C9.94202 39.7297 10.261 38.2736 18.2925 37.3249L18.2925 17.5276ZM29.0041 15.8161L35.2461 15.8161C35.3127 7.39922 28.1713 5.32936 19.7488 5.11856C11.3265 4.86524 4.27519 7.39804 4.2514 15.8161L10.7086 15.8161C10.7434 9.3374 13.9881 7.81737 19.3138 5.32244L19.7488 5.11856C19.5446 5.27009 19.3446 5.41724 19.149 5.56119C15.8382 7.9972 13.776 9.51455 13.722 15.8161L25.9908 15.8161C26.0128 9.95248 23.9736 8.38373 21.011 6.10454L21.0109 6.1045C20.6065 5.79334 20.1848 5.46894 19.7488 5.11856C20.3368 5.42851 20.9045 5.71817 21.4495 5.99625C26.0517 8.34451 29.0361 9.86731 29.0041 15.8161ZM82.2862 13.5456V35.673H86.6263V13.5456H82.2862ZM40.3044 35.9469C38.7758 35.9469 37.5838 35.5498 36.7285 34.7556C35.8823 33.9523 35.4592 32.9071 35.4592 31.62C35.4592 30.2051 35.946 29.1005 36.9196 28.3063C37.9023 27.5122 39.4855 27.042 41.6692 26.896L44.0986 26.6946V26.4852C44.0986 25.8006 43.9848 25.262 43.7573 24.8695C43.539 24.4769 43.1796 24.1985 42.6791 24.0342C42.1878 23.8608 41.5281 23.774 40.7002 23.774C40.1269 23.774 39.4764 23.8243 38.7485 23.9247C38.0206 24.0159 37.3245 24.1666 36.6603 24.3765V21.0903C37.3882 20.8803 38.1843 20.7251 39.0487 20.6247C39.9222 20.5152 40.732 20.4604 41.4781 20.4604C43.0613 20.4604 44.3579 20.6567 45.3678 21.0492C46.3869 21.4417 47.1375 22.099 47.6198 23.0209C48.102 23.9338 48.3431 25.1798 48.3431 26.7591V35.673H44.7673L44.4671 34.1805H44.2623C43.8165 34.7921 43.2478 35.2394 42.5563 35.5224C41.8648 35.8054 41.1141 35.9469 40.3044 35.9469ZM42.1059 29.3059L44.0986 29.1422V31.9623C43.7528 32.3092 43.3706 32.5556 42.9521 32.7017C42.5336 32.8386 42.1241 32.9071 41.7238 32.9071C41.0778 32.9071 40.5864 32.761 40.2498 32.4689C39.9131 32.1677 39.7448 31.7432 39.7448 31.1955C39.7448 30.6387 39.9268 30.2005 40.2907 29.881C40.6638 29.5615 41.2688 29.3698 42.1059 29.3059ZM25.6409 35.673V20.6932H29.203L29.5306 22.6239H29.749C30.1675 21.8844 30.7225 21.3459 31.4141 21.0081C32.1056 20.6612 32.8653 20.4878 33.6933 20.4878C33.9208 20.4878 34.1391 20.4969 34.3484 20.5152C34.5577 20.5334 34.7442 20.5608 34.908 20.5973V24.5408C34.6805 24.4952 34.4349 24.4678 34.171 24.4587C33.9162 24.4404 33.6706 24.4313 33.434 24.4313C33.0063 24.4313 32.5741 24.4861 32.1374 24.5956C31.7007 24.696 31.2958 24.8558 30.9227 25.0749C30.5497 25.2848 30.2358 25.545 29.981 25.8553V35.673H25.6409ZM49.8333 20.6932L55.0743 35.673H60.5199L65.7744 20.6932H61.4889L57.9336 31.735L54.3782 20.6932H49.8333ZM74.6654 35.9606C72.791 35.9606 71.2488 35.6913 70.0387 35.1527C68.8285 34.6141 67.9277 33.7697 67.3363 32.6195C66.754 31.4693 66.4628 29.986 66.4628 28.1694C66.4628 26.5171 66.7312 25.1159 67.2681 23.9657C67.814 22.8156 68.601 21.9438 69.6292 21.3504C70.6665 20.7571 71.9221 20.4604 73.3961 20.4604C74.8064 20.4604 75.9938 20.7616 76.9583 21.3641C77.9228 21.9575 78.6507 22.8384 79.142 24.0068C79.6333 25.1753 79.879 26.6084 79.879 28.3063V29.4428H70.8173C70.858 30.1314 70.9852 30.6974 71.1987 31.1407C71.4717 31.6793 71.9312 32.0673 72.5772 32.3046C73.2323 32.5419 74.1331 32.6606 75.2796 32.6606C75.8619 32.6606 76.4715 32.6195 77.1084 32.5374C77.7544 32.4461 78.4004 32.3274 79.0465 32.1814V35.4539C78.2549 35.6365 77.4997 35.7643 76.7809 35.8373C76.0711 35.9195 75.366 35.9606 74.6654 35.9606ZM71.0896 24.8421C70.9147 25.3684 70.8198 26.0667 70.805 26.9371H75.8233C75.8084 26.0723 75.7182 25.374 75.5525 24.8421C75.3705 24.2579 75.093 23.8425 74.72 23.596C74.356 23.3496 73.9011 23.2263 73.3552 23.2263C72.8001 23.2263 72.3315 23.3496 71.9494 23.596C71.5763 23.8425 71.2897 24.2579 71.0896 24.8421ZM95.7657 35.9058C95.2107 35.9058 94.6011 35.8875 93.9368 35.851C93.2817 35.8236 92.6175 35.778 91.9442 35.7141C91.28 35.6593 90.6567 35.5909 90.0744 35.5087V15.8597C90.7022 15.7227 91.3755 15.6041 92.0943 15.5036C92.8131 15.3941 93.5501 15.3119 94.3053 15.2572C95.0696 15.1933 95.8203 15.1613 96.5573 15.1613C98.559 15.1613 100.192 15.3713 101.457 15.7912C102.731 16.202 103.668 16.8273 104.269 17.6671C104.869 18.4978 105.169 19.543 105.169 20.8027C105.169 21.5513 105.024 22.2405 104.733 22.8703C104.45 23.4911 104.037 24.0159 103.491 24.445C103.049 24.7918 102.531 25.0491 101.935 25.217C103.021 25.4419 103.899 25.9149 104.569 26.6358C105.333 27.4391 105.715 28.5574 105.715 29.9905C105.715 30.9308 105.538 31.7706 105.183 32.51C104.828 33.2403 104.259 33.861 103.477 34.3722C102.694 34.8743 101.666 35.2577 100.392 35.5224C99.1277 35.778 97.5855 35.9058 95.7657 35.9058ZM96.9531 32.6606C98.1359 32.6606 99.064 32.5556 99.7373 32.3457C100.42 32.1357 100.902 31.8208 101.184 31.4009C101.475 30.981 101.621 30.447 101.621 29.7988C101.621 28.8221 101.316 28.1101 100.706 27.6628C100.106 27.2064 99.1141 26.9781 97.731 26.9781H94.4009V32.5374C94.8649 32.583 95.2971 32.615 95.6975 32.6332C96.0978 32.6515 96.5163 32.6606 96.9531 32.6606ZM94.4009 18.6393V23.6508H97.3079C98.2087 23.6508 98.9275 23.555 99.4644 23.3633C100.01 23.1624 100.402 22.8703 100.638 22.4869C100.884 22.1035 101.007 21.6197 101.007 21.0355C101.007 20.1135 100.715 19.4471 100.133 19.0364C99.5508 18.6165 98.5454 18.4065 97.1169 18.4065C96.5982 18.4065 96.1206 18.4293 95.6838 18.475C95.2471 18.5115 94.8194 18.5662 94.4009 18.6393ZM108.568 34.7556C109.423 35.5498 110.615 35.9469 112.144 35.9469C112.954 35.9469 113.704 35.8054 114.396 35.5224C115.087 35.2394 115.656 34.7921 116.102 34.1805H116.307L116.607 35.673H120.183V26.7591C120.183 25.1798 119.942 23.9338 119.459 23.0209C118.977 22.099 118.227 21.4417 117.207 21.0492C116.197 20.6567 114.901 20.4604 113.318 20.4604C112.572 20.4604 111.762 20.5152 110.888 20.6247C110.024 20.7251 109.228 20.8803 108.5 21.0903V24.3765C109.164 24.1666 109.86 24.0159 110.588 23.9247C111.316 23.8243 111.967 23.774 112.54 23.774C113.368 23.774 114.027 23.8608 114.519 24.0342C115.019 24.1985 115.379 24.4769 115.597 24.8695C115.824 25.262 115.938 25.8006 115.938 26.4852V26.6946L113.509 26.896C111.325 27.042 109.742 27.5122 108.759 28.3063C107.786 29.1005 107.299 30.2051 107.299 31.62C107.299 32.9071 107.722 33.9523 108.568 34.7556ZM115.938 29.1422L113.946 29.3059C113.108 29.3698 112.503 29.5615 112.13 29.881C111.766 30.2005 111.584 30.6387 111.584 31.1955C111.584 31.7432 111.753 32.1677 112.089 32.4689C112.426 32.761 112.917 32.9071 113.563 32.9071C113.964 32.9071 114.373 32.8386 114.792 32.7017C115.21 32.5556 115.592 32.3092 115.938 31.9623V29.1422ZM130.831 35.9606C128.957 35.9606 127.414 35.6913 126.204 35.1527C124.994 34.6141 124.093 33.7697 123.502 32.6195C122.919 31.4693 122.628 29.986 122.628 28.1694C122.628 26.5171 122.897 25.1159 123.434 23.9657C123.979 22.8156 124.767 21.9438 125.795 21.3504C126.832 20.7571 128.088 20.4604 129.562 20.4604C130.972 20.4604 132.159 20.7616 133.124 21.3641C134.088 21.9575 134.816 22.8384 135.307 24.0068C135.799 25.1753 136.044 26.6084 136.044 28.3063V29.4428H126.983C127.024 30.1314 127.151 30.6974 127.364 31.1407C127.637 31.6793 128.097 32.0673 128.743 32.3046C129.398 32.5419 130.299 32.6606 131.445 32.6606C132.027 32.6606 132.637 32.6195 133.274 32.5374C133.92 32.4461 134.566 32.3274 135.212 32.1814V35.4539C134.42 35.6365 133.665 35.7643 132.946 35.8373C132.237 35.9195 131.531 35.9606 130.831 35.9606ZM127.255 24.8421C127.08 25.3684 126.985 26.0667 126.971 26.9371H131.989C131.974 26.0723 131.884 25.374 131.718 24.8421C131.536 24.2579 131.259 23.8425 130.885 23.596C130.522 23.3496 130.067 23.2263 129.521 23.2263C128.966 23.2263 128.497 23.3496 128.115 23.596C127.742 23.8425 127.455 24.2579 127.255 24.8421Z" fill="#31509E"/>
</svg>
