<svg width="276" height="114" viewBox="0 0 276 114" fill="none" xmlns="http://www.w3.org/2000/svg">
<path fill-rule="evenodd" clip-rule="evenodd" d="M29.1262 25.9317H35.4672V66.6471C57.076 64.8234 98.5402 64.4382 178.079 68.0273C256.504 69.2102 275.223 67.8259 275.737 70.2705C275.908 71.0824 274.071 72.3166 271.746 74.2074C271.746 75.2871 210.829 76.3004 139.763 76.3004C68.6979 76.3004 11.981 75.2872 11.981 74.2076C11.981 72.2778 12.6399 69.267 29.1262 67.2865L29.1262 25.9317ZM51.3458 22.3598L64.2938 22.3599C64.4318 4.79493 49.6182 0.475378 32.1469 0.0354619C14.6761 -0.493173 0.049341 4.79247 0 22.3599L13.3945 22.3599C13.4666 8.83968 20.1973 5.66756 31.2447 0.460949L31.2453 0.460683C31.5427 0.320499 31.8433 0.178839 32.1469 0.0354619C31.7234 0.3517 31.3085 0.658789 30.9027 0.959184C24.0351 6.04285 19.7573 9.20937 19.6453 22.3598L45.095 22.3598C45.1407 10.1233 40.9108 6.84948 34.7652 2.0931C33.9261 1.44372 33.0514 0.766698 32.1469 0.0354619C33.3667 0.682302 34.5443 1.28679 35.6748 1.86711C45.2213 6.76765 51.412 9.94554 51.3458 22.3598ZM163.447 17.6216V63.7989H172.534V17.6216H163.447ZM75.5502 64.3704C72.3498 64.3704 69.8542 63.5417 68.0635 61.8843C66.2919 60.2079 65.4061 58.0267 65.4061 55.3407C65.4061 52.3879 66.4252 50.0829 68.4636 48.4255C70.521 46.7682 73.8357 45.7871 78.4077 45.4823L83.494 45.0621V44.625C83.494 43.1963 83.2559 42.0723 82.7797 41.2532C82.3225 40.434 81.57 39.853 80.5222 39.5101C79.4935 39.1481 78.1124 38.9672 76.3789 38.9672C75.1787 38.9672 73.8166 39.0719 72.2926 39.2815C70.7686 39.472 69.3113 39.7863 67.9207 40.2245V33.3665C69.4447 32.9283 71.1115 32.6045 72.9213 32.3949C74.7501 32.1663 76.4455 32.052 78.0076 32.052C81.3223 32.052 84.037 32.4616 86.1515 33.2807C88.2851 34.0999 89.8568 35.4715 90.8664 37.3955C91.8761 39.3005 92.3809 41.9009 92.3809 45.1965V63.7989H84.8942L84.2656 60.6842H83.8369C82.9035 61.9605 81.7129 62.894 80.2651 63.4845C78.8173 64.0751 77.2456 64.3704 75.5502 64.3704ZM79.3221 50.5115L83.494 50.1698V56.055C82.7701 56.7789 81.97 57.2933 81.0937 57.5981C80.2174 57.8838 79.3602 58.0267 78.522 58.0267C77.1694 58.0267 76.1407 57.7219 75.4359 57.1123C74.731 56.4837 74.3786 55.5978 74.3786 54.4548C74.3786 53.2928 74.7596 52.3784 75.5216 51.7116C76.3027 51.0449 77.5695 50.6448 79.3221 50.5115ZM44.8494 63.7989V32.5378H52.3075L52.9933 36.5669H53.4505C54.3268 35.0238 55.4889 33.8999 56.9367 33.195C58.3845 32.4711 59.9752 32.1092 61.7087 32.1092C62.185 32.1092 62.6422 32.1282 63.0803 32.1663C63.5185 32.2044 63.909 32.2616 64.2519 32.3378V40.5674C63.7756 40.4721 63.2613 40.415 62.7088 40.3959C62.1754 40.3578 61.6611 40.3388 61.1658 40.3388C60.2704 40.3388 59.3656 40.4531 58.4512 40.6817C57.5368 40.8912 56.689 41.2246 55.908 41.6818C55.1269 42.12 54.4697 42.6629 53.9363 43.3106V63.7989H44.8494ZM95.5009 32.5378L106.474 63.7989H117.875L128.877 32.5378H119.904L112.46 55.5807L105.016 32.5378H95.5009ZM147.491 64.3989C143.567 64.3989 140.338 63.837 137.804 62.713C135.271 61.5891 133.385 59.8269 132.147 57.4266C130.927 55.0263 130.318 51.9307 130.318 48.1398C130.318 44.6917 130.88 41.7675 132.004 39.3672C133.147 36.9669 134.795 35.1476 136.947 33.9094C139.119 32.6711 141.748 32.052 144.834 32.052C147.787 32.052 150.273 32.6807 152.292 33.938C154.311 35.1762 155.835 37.0145 156.864 39.4529C157.893 41.8914 158.407 44.8822 158.407 48.4255V50.7972H139.435C139.52 52.2342 139.786 53.4153 140.233 54.3405C140.805 55.4645 141.767 56.2741 143.119 56.7694C144.491 57.2647 146.377 57.5124 148.777 57.5124C149.996 57.5124 151.273 57.4266 152.606 57.2552C153.959 57.0647 155.311 56.817 156.664 56.5122V63.3417C155.007 63.7227 153.425 63.9894 151.921 64.1418C150.435 64.3132 148.958 64.3989 147.491 64.3989ZM140.005 41.196C139.639 42.2944 139.44 43.7517 139.409 45.568H149.916C149.885 43.7633 149.696 42.306 149.349 41.196C148.968 39.9768 148.387 39.1101 147.606 38.5957C146.844 38.0813 145.891 37.8242 144.748 37.8242C143.586 37.8242 142.605 38.0813 141.805 38.5957C141.024 39.1101 140.424 39.9768 140.005 41.196ZM191.669 64.2846C190.507 64.2846 189.23 64.2465 187.84 64.1703C186.468 64.1132 185.078 64.0179 183.668 63.8846C182.277 63.7703 180.972 63.6274 179.753 63.456V22.4508C181.068 22.1651 182.477 21.9174 183.982 21.7079C185.487 21.4793 187.03 21.3078 188.611 21.1935C190.212 21.0602 191.783 20.9935 193.326 20.9935C197.517 20.9935 200.937 21.4316 203.585 22.3079C206.252 23.1652 208.214 24.4701 209.471 26.2227C210.728 27.9563 211.357 30.1375 211.357 32.7664C211.357 34.3285 211.052 35.7668 210.443 37.0812C209.852 38.3766 208.985 39.472 207.842 40.3673C206.918 41.091 205.833 41.6281 204.585 41.9784C206.858 42.4478 208.697 43.4348 210.1 44.9394C211.7 46.6158 212.5 48.9494 212.5 51.9402C212.5 53.9024 212.129 55.655 211.386 57.198C210.643 58.722 209.452 60.0174 207.814 61.0842C206.175 62.132 204.023 62.9321 201.356 63.4845C198.708 64.0179 195.479 64.2846 191.669 64.2846ZM194.155 57.5124C196.631 57.5124 198.574 57.2933 199.984 56.8551C201.413 56.417 202.423 55.7598 203.013 54.8835C203.623 54.0072 203.928 52.8927 203.928 51.5402C203.928 49.5018 203.289 48.0159 202.013 47.0825C200.756 46.13 198.679 45.6537 195.784 45.6537H188.811V57.2552C189.783 57.3504 190.688 57.4171 191.526 57.4552C192.364 57.4933 193.24 57.5124 194.155 57.5124ZM188.811 28.2515V38.71H194.898C196.784 38.71 198.289 38.51 199.413 38.1099C200.556 37.6908 201.375 37.0812 201.87 36.2811C202.384 35.481 202.642 34.4714 202.642 33.2522C202.642 31.3281 202.032 29.9375 200.813 29.0802C199.594 28.2039 197.489 27.7658 194.498 27.7658C193.412 27.7658 192.412 27.8134 191.497 27.9086C190.583 27.9848 189.688 28.0991 188.811 28.2515ZM218.473 61.8843C220.264 63.5417 222.759 64.3704 225.96 64.3704C227.655 64.3704 229.227 64.0751 230.675 63.4845C232.122 62.894 233.313 61.9605 234.247 60.6842H234.675L235.304 63.7989H242.79V45.1965C242.79 41.9009 242.286 39.3005 241.276 37.3955C240.266 35.4715 238.695 34.0999 236.561 33.2807C234.447 32.4616 231.732 32.052 228.417 32.052C226.855 32.052 225.16 32.1663 223.331 32.3949C221.521 32.6045 219.854 32.9283 218.33 33.3665V40.2245C219.721 39.7863 221.178 39.472 222.702 39.2815C224.226 39.0719 225.588 38.9672 226.788 38.9672C228.522 38.9672 229.903 39.1481 230.932 39.5101C231.98 39.853 232.732 40.434 233.189 41.2532C233.665 42.0723 233.904 43.1963 233.904 44.625V45.0621L228.817 45.4823C224.245 45.7871 220.931 46.7682 218.873 48.4255C216.835 50.0829 215.816 52.3879 215.816 55.3407C215.816 58.0267 216.701 60.2079 218.473 61.8843ZM233.904 50.1698L229.732 50.5115C227.979 50.6448 226.712 51.0449 225.931 51.7116C225.169 52.3784 224.788 53.2928 224.788 54.4548C224.788 55.5978 225.141 56.4837 225.845 57.1123C226.55 57.7219 227.579 58.0267 228.932 58.0267C229.77 58.0267 230.627 57.8838 231.503 57.5981C232.38 57.2933 233.18 56.7789 233.904 56.055V50.1698ZM265.084 64.3989C261.16 64.3989 257.931 63.837 255.397 62.713C252.864 61.5891 250.978 59.8269 249.74 57.4266C248.52 55.0263 247.911 51.9307 247.911 48.1398C247.911 44.6917 248.473 41.7675 249.597 39.3672C250.74 36.9669 252.387 35.1476 254.54 33.9094C256.712 32.6711 259.341 32.052 262.427 32.052C265.38 32.052 267.866 32.6807 269.885 33.938C271.904 35.1762 273.428 37.0145 274.457 39.4529C275.486 41.8914 276 44.8822 276 48.4255V50.7972H257.028C257.113 52.2342 257.379 53.4153 257.826 54.3405C258.398 55.4645 259.36 56.2741 260.712 56.7694C262.084 57.2647 263.97 57.5124 266.37 57.5124C267.589 57.5124 268.866 57.4266 270.199 57.2552C271.552 57.0647 272.904 56.817 274.257 56.5122V63.3417C272.6 63.7227 271.018 63.9894 269.513 64.1418C268.028 64.3132 266.551 64.3989 265.084 64.3989ZM257.598 41.196C257.232 42.2944 257.033 43.7517 257.002 45.568H267.509C267.478 43.7633 267.289 42.306 266.942 41.196C266.561 39.9768 265.98 39.1101 265.199 38.5957C264.437 38.0813 263.484 37.8242 262.341 37.8242C261.179 37.8242 260.198 38.0813 259.398 38.5957C258.617 39.1101 258.017 39.9768 257.598 41.196Z" fill="#31509E"/>
<path d="M36.7482 109V102.178L37.3422 104.329L31.9422 95.68H35.0472L38.6922 101.566H37.8642L41.4642 95.68H44.3442L39.0792 104.329L39.6732 102.223V109H36.7482ZM48.6114 109.189C47.6274 109.189 46.7754 109.003 46.0554 108.631C45.3414 108.253 44.7894 107.689 44.3994 106.939C44.0094 106.183 43.8144 105.238 43.8144 104.104C43.8144 102.958 44.0034 102.007 44.3814 101.251C44.7654 100.495 45.3144 99.931 46.0284 99.559C46.7484 99.187 47.6094 99.001 48.6114 99.001C49.6134 99.001 50.4714 99.19 51.1854 99.568C51.9054 99.94 52.4544 100.504 52.8324 101.26C53.2164 102.01 53.4084 102.952 53.4084 104.086C53.4084 105.226 53.2134 106.174 52.8234 106.93C52.4334 107.686 51.8784 108.253 51.1584 108.631C50.4444 109.003 49.5954 109.189 48.6114 109.189ZM48.6114 107.011C49.0134 107.011 49.3554 106.924 49.6374 106.75C49.9254 106.576 50.1444 106.279 50.2944 105.859C50.4444 105.433 50.5194 104.851 50.5194 104.113C50.5194 103.357 50.4444 102.766 50.2944 102.34C50.1444 101.914 49.9254 101.614 49.6374 101.44C49.3554 101.26 49.0134 101.17 48.6114 101.17C48.2094 101.17 47.8644 101.257 47.5764 101.431C47.2944 101.605 47.0784 101.905 46.9284 102.331C46.7784 102.751 46.7034 103.333 46.7034 104.077C46.7034 104.833 46.7784 105.424 46.9284 105.85C47.0784 106.276 47.2944 106.576 47.5764 106.75C47.8644 106.924 48.2094 107.011 48.6114 107.011ZM58.9045 109.171C58.2505 109.171 57.6685 109.045 57.1585 108.793C56.6485 108.535 56.2465 108.124 55.9525 107.56C55.6585 106.996 55.5115 106.249 55.5115 105.319V99.154H58.3825V105.121C58.3825 105.715 58.5055 106.126 58.7515 106.354C59.0035 106.582 59.3305 106.696 59.7325 106.696C59.9305 106.696 60.1375 106.669 60.3535 106.615C60.5755 106.555 60.7855 106.465 60.9835 106.345C61.1815 106.225 61.3555 106.075 61.5055 105.895V99.154H64.3675V109H62.0095L61.8115 108.01H61.6855C61.3135 108.388 60.8905 108.676 60.4165 108.874C59.9425 109.072 59.4385 109.171 58.9045 109.171ZM67.0085 109V99.154H69.3575L69.5735 100.423H69.7175C69.9935 99.937 70.3595 99.583 70.8155 99.361C71.2715 99.133 71.7725 99.019 72.3185 99.019C72.4685 99.019 72.6125 99.025 72.7505 99.037C72.8885 99.049 73.0115 99.067 73.1195 99.091V101.683C72.9695 101.653 72.8075 101.635 72.6335 101.629C72.4655 101.617 72.3035 101.611 72.1475 101.611C71.8655 101.611 71.5805 101.647 71.2925 101.719C71.0045 101.785 70.7375 101.89 70.4915 102.034C70.2455 102.172 70.0385 102.343 69.8705 102.547V109H67.0085ZM83.0876 109V98.11H78.8846V95.68H90.2156V98.11H86.0216V109H83.0876ZM90.6921 109V99.154H93.0411L93.2571 100.423H93.4011C93.6771 99.937 94.0431 99.583 94.4991 99.361C94.9551 99.133 95.4561 99.019 96.0021 99.019C96.1521 99.019 96.2961 99.025 96.4341 99.037C96.5721 99.049 96.6951 99.067 96.8031 99.091V101.683C96.6531 101.653 96.4911 101.635 96.3171 101.629C96.1491 101.617 95.9871 101.611 95.8311 101.611C95.5491 101.611 95.2641 101.647 94.9761 101.719C94.6881 101.785 94.4211 101.89 94.1751 102.034C93.9291 102.172 93.7221 102.343 93.5541 102.547V109H90.6921ZM100.862 109.18C99.8536 109.18 99.0676 108.919 98.5036 108.397C97.9456 107.869 97.6666 107.182 97.6666 106.336C97.6666 105.406 97.9876 104.68 98.6296 104.158C99.2776 103.636 100.322 103.327 101.762 103.231L103.832 103.06L104.138 104.644L102.05 104.815C101.498 104.857 101.099 104.983 100.853 105.193C100.613 105.403 100.493 105.691 100.493 106.057C100.493 106.417 100.604 106.696 100.826 106.894C101.048 107.086 101.372 107.182 101.798 107.182C102.062 107.182 102.332 107.137 102.608 107.047C102.884 106.951 103.136 106.789 103.364 106.561V102.961C103.364 102.511 103.289 102.157 103.139 101.899C102.995 101.641 102.758 101.458 102.428 101.35C102.104 101.236 101.669 101.179 101.123 101.179C100.745 101.179 100.316 101.212 99.8356 101.278C99.3556 101.338 98.8966 101.437 98.4586 101.575V99.415C98.9386 99.277 99.4636 99.175 100.034 99.109C100.61 99.037 101.144 99.001 101.636 99.001C102.68 99.001 103.535 99.13 104.201 99.388C104.873 99.646 105.368 100.078 105.686 100.684C106.004 101.284 106.163 102.103 106.163 103.141V109H103.805L103.607 108.019H103.472C103.178 108.421 102.803 108.715 102.347 108.901C101.891 109.087 101.396 109.18 100.862 109.18ZM111.101 109L107.645 99.154H110.642L113.09 106.732H112.883L115.331 99.154H118.157L114.692 109H111.101ZM124.52 109.189C123.284 109.189 122.267 109.012 121.469 108.658C120.671 108.304 120.077 107.749 119.687 106.993C119.303 106.237 119.111 105.262 119.111 104.068C119.111 102.982 119.288 102.061 119.642 101.305C120.002 100.549 120.521 99.976 121.199 99.586C121.883 99.196 122.711 99.001 123.683 99.001C124.613 99.001 125.396 99.199 126.032 99.595C126.668 99.985 127.148 100.564 127.472 101.332C127.796 102.1 127.958 103.042 127.958 104.158V104.905H120.749V103.258H125.744L125.285 103.429C125.285 102.781 125.225 102.265 125.105 101.881C124.985 101.497 124.802 101.224 124.556 101.062C124.316 100.9 124.016 100.819 123.656 100.819C123.29 100.819 122.981 100.9 122.729 101.062C122.483 101.224 122.294 101.497 122.162 101.881C122.036 102.259 121.973 102.772 121.973 103.42V104.572C121.973 105.178 122.06 105.661 122.234 106.021C122.414 106.375 122.717 106.63 123.143 106.786C123.575 106.942 124.169 107.02 124.925 107.02C125.309 107.02 125.711 106.993 126.131 106.939C126.557 106.879 126.983 106.801 127.409 106.705V108.856C126.887 108.976 126.389 109.06 125.915 109.108C125.447 109.162 124.982 109.189 124.52 109.189ZM130.046 109V94.456H132.908V109H130.046ZM135.555 109V99.154H138.426V109H135.555ZM136.986 97.723C136.386 97.723 135.939 97.591 135.645 97.327C135.357 97.063 135.213 96.697 135.213 96.229C135.213 95.749 135.357 95.38 135.645 95.122C135.939 94.858 136.386 94.726 136.986 94.726C137.592 94.726 138.039 94.858 138.327 95.122C138.615 95.38 138.759 95.749 138.759 96.229C138.759 96.697 138.615 97.063 138.327 97.327C138.039 97.591 137.592 97.723 136.986 97.723ZM141.065 109V99.154H143.432L143.621 100.153H143.756C144.122 99.781 144.551 99.496 145.043 99.298C145.535 99.1 146.069 99.001 146.645 99.001C147.293 99.001 147.869 99.13 148.373 99.388C148.883 99.64 149.282 100.051 149.57 100.621C149.858 101.185 150.002 101.932 150.002 102.862V109H147.131V103.042C147.131 102.448 147.008 102.037 146.762 101.809C146.516 101.581 146.177 101.467 145.745 101.467C145.529 101.467 145.31 101.497 145.088 101.557C144.872 101.611 144.662 101.698 144.458 101.818C144.26 101.938 144.083 102.088 143.927 102.268V109H141.065ZM156.106 113.14C155.584 113.14 155.038 113.107 154.468 113.041C153.898 112.981 153.346 112.879 152.812 112.735V110.494C153.364 110.644 153.901 110.755 154.423 110.827C154.945 110.899 155.431 110.935 155.881 110.935C156.841 110.935 157.537 110.755 157.969 110.395C158.407 110.035 158.626 109.435 158.626 108.595V107.947H158.491C158.209 108.295 157.852 108.568 157.42 108.766C156.994 108.964 156.502 109.063 155.944 109.063C155.272 109.063 154.645 108.895 154.063 108.559C153.481 108.217 153.01 107.695 152.65 106.993C152.296 106.285 152.119 105.379 152.119 104.275C152.119 102.577 152.581 101.275 153.505 100.369C154.429 99.457 155.83 99.001 157.708 99.001C158.128 99.001 158.56 99.022 159.004 99.064C159.454 99.106 159.892 99.169 160.318 99.253C160.744 99.331 161.137 99.43 161.497 99.55V108.073C161.497 109.855 161.053 111.145 160.165 111.943C159.277 112.741 157.924 113.14 156.106 113.14ZM157.033 106.732C157.321 106.732 157.606 106.684 157.888 106.588C158.17 106.486 158.416 106.336 158.626 106.138V101.296C158.47 101.26 158.29 101.23 158.086 101.206C157.888 101.182 157.678 101.17 157.456 101.17C156.664 101.17 156.058 101.392 155.638 101.836C155.218 102.274 155.008 103.006 155.008 104.032C155.008 104.728 155.092 105.274 155.26 105.67C155.428 106.06 155.662 106.336 155.962 106.498C156.268 106.654 156.625 106.732 157.033 106.732ZM172.634 109.171C171.992 109.171 171.347 109.12 170.699 109.018C170.057 108.922 169.463 108.784 168.917 108.604V106.228C169.295 106.354 169.697 106.462 170.123 106.552C170.549 106.636 170.975 106.702 171.401 106.75C171.833 106.798 172.241 106.822 172.625 106.822C173.519 106.822 174.152 106.687 174.524 106.417C174.896 106.141 175.082 105.757 175.082 105.265C175.082 104.851 174.944 104.527 174.668 104.293C174.398 104.059 173.891 103.846 173.147 103.654L172.139 103.393C170.975 103.099 170.093 102.643 169.493 102.025C168.899 101.401 168.602 100.579 168.602 99.559C168.602 98.287 169.061 97.294 169.979 96.58C170.903 95.866 172.292 95.509 174.146 95.509C174.746 95.509 175.316 95.545 175.856 95.617C176.402 95.683 176.885 95.776 177.305 95.896V98.272C176.879 98.14 176.405 98.038 175.883 97.966C175.361 97.894 174.836 97.858 174.308 97.858C173.612 97.858 173.06 97.924 172.652 98.056C172.244 98.182 171.95 98.362 171.77 98.596C171.596 98.83 171.509 99.1 171.509 99.406C171.509 99.796 171.629 100.102 171.869 100.324C172.109 100.546 172.559 100.747 173.219 100.927L174.218 101.188C175.082 101.398 175.793 101.677 176.351 102.025C176.909 102.367 177.32 102.79 177.584 103.294C177.854 103.792 177.989 104.383 177.989 105.067C177.989 105.919 177.776 106.654 177.35 107.272C176.93 107.884 176.321 108.355 175.523 108.685C174.725 109.009 173.762 109.171 172.634 109.171ZM184.607 109.189C183.623 109.189 182.771 109.003 182.051 108.631C181.337 108.253 180.785 107.689 180.395 106.939C180.005 106.183 179.81 105.238 179.81 104.104C179.81 102.958 179.999 102.007 180.377 101.251C180.761 100.495 181.31 99.931 182.024 99.559C182.744 99.187 183.605 99.001 184.607 99.001C185.609 99.001 186.467 99.19 187.181 99.568C187.901 99.94 188.45 100.504 188.828 101.26C189.212 102.01 189.404 102.952 189.404 104.086C189.404 105.226 189.209 106.174 188.819 106.93C188.429 107.686 187.874 108.253 187.154 108.631C186.44 109.003 185.591 109.189 184.607 109.189ZM184.607 107.011C185.009 107.011 185.351 106.924 185.633 106.75C185.921 106.576 186.14 106.279 186.29 105.859C186.44 105.433 186.515 104.851 186.515 104.113C186.515 103.357 186.44 102.766 186.29 102.34C186.14 101.914 185.921 101.614 185.633 101.44C185.351 101.26 185.009 101.17 184.607 101.17C184.205 101.17 183.86 101.257 183.572 101.431C183.29 101.605 183.074 101.905 182.924 102.331C182.774 102.751 182.699 103.333 182.699 104.077C182.699 104.833 182.774 105.424 182.924 105.85C183.074 106.276 183.29 106.576 183.572 106.75C183.86 106.924 184.205 107.011 184.607 107.011ZM191.571 109V94.456H194.433V109H191.571ZM200.393 109.171C199.739 109.171 199.157 109.045 198.647 108.793C198.137 108.535 197.735 108.124 197.441 107.56C197.147 106.996 197 106.249 197 105.319V99.154H199.871V105.121C199.871 105.715 199.994 106.126 200.24 106.354C200.492 106.582 200.819 106.696 201.221 106.696C201.419 106.696 201.626 106.669 201.842 106.615C202.064 106.555 202.274 106.465 202.472 106.345C202.67 106.225 202.844 106.075 202.994 105.895V99.154H205.856V109H203.498L203.3 108.01H203.174C202.802 108.388 202.379 108.676 201.905 108.874C201.431 109.072 200.927 109.171 200.393 109.171ZM213.038 109.18C211.85 109.18 210.935 108.886 210.293 108.298C209.657 107.704 209.339 106.765 209.339 105.481V99.154L209.861 95.68H212.201V105.031C212.201 105.709 212.327 106.177 212.579 106.435C212.837 106.693 213.251 106.822 213.821 106.822C213.977 106.822 214.136 106.813 214.298 106.795C214.466 106.771 214.652 106.741 214.856 106.705V108.973C214.598 109.027 214.307 109.075 213.983 109.117C213.665 109.159 213.35 109.18 213.038 109.18ZM207.737 101.413V99.154H214.793V101.413H207.737ZM216.819 109V99.154H219.69V109H216.819ZM218.25 97.723C217.65 97.723 217.203 97.591 216.909 97.327C216.621 97.063 216.477 96.697 216.477 96.229C216.477 95.749 216.621 95.38 216.909 95.122C217.203 94.858 217.65 94.726 218.25 94.726C218.856 94.726 219.303 94.858 219.591 95.122C219.879 95.38 220.023 95.749 220.023 96.229C220.023 96.697 219.879 97.063 219.591 97.327C219.303 97.591 218.856 97.723 218.25 97.723ZM226.676 109.189C225.692 109.189 224.84 109.003 224.12 108.631C223.406 108.253 222.854 107.689 222.464 106.939C222.074 106.183 221.879 105.238 221.879 104.104C221.879 102.958 222.068 102.007 222.446 101.251C222.83 100.495 223.379 99.931 224.093 99.559C224.813 99.187 225.674 99.001 226.676 99.001C227.678 99.001 228.536 99.19 229.25 99.568C229.97 99.94 230.519 100.504 230.897 101.26C231.281 102.01 231.473 102.952 231.473 104.086C231.473 105.226 231.278 106.174 230.888 106.93C230.498 107.686 229.943 108.253 229.223 108.631C228.509 109.003 227.66 109.189 226.676 109.189ZM226.676 107.011C227.078 107.011 227.42 106.924 227.702 106.75C227.99 106.576 228.209 106.279 228.359 105.859C228.509 105.433 228.584 104.851 228.584 104.113C228.584 103.357 228.509 102.766 228.359 102.34C228.209 101.914 227.99 101.614 227.702 101.44C227.42 101.26 227.078 101.17 226.676 101.17C226.274 101.17 225.929 101.257 225.641 101.431C225.359 101.605 225.143 101.905 224.993 102.331C224.843 102.751 224.768 103.333 224.768 104.077C224.768 104.833 224.843 105.424 224.993 105.85C225.143 106.276 225.359 106.576 225.641 106.75C225.929 106.924 226.274 107.011 226.676 107.011ZM233.657 109V99.154H236.024L236.213 100.153H236.348C236.714 99.781 237.143 99.496 237.635 99.298C238.127 99.1 238.661 99.001 239.237 99.001C239.885 99.001 240.461 99.13 240.965 99.388C241.475 99.64 241.874 100.051 242.162 100.621C242.45 101.185 242.594 101.932 242.594 102.862V109H239.723V103.042C239.723 102.448 239.6 102.037 239.354 101.809C239.108 101.581 238.769 101.467 238.337 101.467C238.121 101.467 237.902 101.497 237.68 101.557C237.464 101.611 237.254 101.698 237.05 101.818C236.852 101.938 236.675 102.088 236.519 102.268V109H233.657Z" fill="#31509E"/>
</svg>
